<?xml version="1.0" encoding="UTF-8" standalone="no"?>
<!-- Created with Inkscape (http://www.inkscape.org/) -->

<svg
   xmlns:dc="http://purl.org/dc/elements/1.1/"
   xmlns:cc="http://creativecommons.org/ns#"
   xmlns:rdf="http://www.w3.org/1999/02/22-rdf-syntax-ns#"
   xmlns:svg="http://www.w3.org/2000/svg"
   xmlns="http://www.w3.org/2000/svg"
   xmlns:sodipodi="http://sodipodi.sourceforge.net/DTD/sodipodi-0.dtd"
   xmlns:inkscape="http://www.inkscape.org/namespaces/inkscape"
   width="210mm"
   height="297mm"
   viewBox="0 0 210 297"
   version="1.1"
   id="svg8"
   inkscape:version="0.92.4 (5da689c313, 2019-01-14)"
   sodipodi:docname="turnOff.svg">
  <defs
     id="defs2" />
  <sodipodi:namedview
     id="base"
     pagecolor="#ffffff"
     bordercolor="#666666"
     borderopacity="1.0"
     inkscape:pageopacity="0.0"
     inkscape:pageshadow="2"
     inkscape:zoom="0.35"
     inkscape:cx="400"
     inkscape:cy="560"
     inkscape:document-units="mm"
     inkscape:current-layer="g77"
     showgrid="false"
     inkscape:pagecheckerboard="true"
     inkscape:window-width="1360"
     inkscape:window-height="707"
     inkscape:window-x="0"
     inkscape:window-y="33"
     inkscape:window-maximized="1" />
  <metadata
     id="metadata5">
    <rdf:RDF>
      <cc:Work
         rdf:about="">
        <dc:format>image/svg+xml</dc:format>
        <dc:type
           rdf:resource="http://purl.org/dc/dcmitype/StillImage" />
        <dc:title></dc:title>
      </cc:Work>
    </rdf:RDF>
  </metadata>
  <g
     inkscape:label="Layer 1"
     inkscape:groupmode="layer"
     id="layer1">
    <g
       id="g77"
       transform="matrix(12.259027,0,0,12.259027,-44.525587,0.9690471)"
       style="fill:#ffffff">
      <g
         id="g222"
         transform="matrix(2.1718775,0,0,2.1718775,40.540195,-25.312535)">
        <g
           transform="matrix(0.46043168,0,0,0.46043168,-18.665983,11.654677)"
           id="g186">
          <path
             inkscape:connector-curvature="0"
             d="m 12,3.457 c -0.414,0 -0.75,-0.336 -0.75,-0.75 V 0.75 C 11.25,0.336 11.586,0 12,0 c 0.414,0 0.75,0.336 0.75,0.75 v 1.957 c 0,0.414 -0.336,0.75 -0.75,0.75 z"
             id="path146" />
          <path
             inkscape:connector-curvature="0"
             d="m 18.571,6.179 c -0.192,0 -0.384,-0.073 -0.53,-0.22 -0.293,-0.293 -0.293,-0.768 0,-1.061 l 1.384,-1.384 c 0.293,-0.293 0.768,-0.293 1.061,0 0.293,0.293 0.293,0.768 0,1.061 l -1.384,1.384 c -0.147,0.146 -0.339,0.22 -0.531,0.22 z"
             id="path148" />
          <path
             inkscape:connector-curvature="0"
             d="m 23.25,12.75 h -1.957 c -0.414,0 -0.75,-0.336 -0.75,-0.75 0,-0.414 0.336,-0.75 0.75,-0.75 h 1.957 c 0.414,0 0.75,0.336 0.75,0.75 0,0.414 -0.336,0.75 -0.75,0.75 z"
             id="path150" />
          <path
             inkscape:connector-curvature="0"
             d="m 19.955,20.705 c -0.192,0 -0.384,-0.073 -0.53,-0.22 l -1.384,-1.384 c -0.293,-0.293 -0.293,-0.768 0,-1.061 0.293,-0.293 0.768,-0.293 1.061,0 l 1.384,1.384 c 0.293,0.293 0.293,0.768 0,1.061 -0.147,0.147 -0.339,0.22 -0.531,0.22 z"
             id="path152" />
          <path
             inkscape:connector-curvature="0"
             d="m 4.045,20.705 c -0.192,0 -0.384,-0.073 -0.53,-0.22 -0.293,-0.293 -0.293,-0.768 0,-1.061 L 4.899,18.04 c 0.293,-0.293 0.768,-0.293 1.061,0 0.293,0.293 0.293,0.768 0,1.061 l -1.384,1.384 c -0.147,0.147 -0.339,0.22 -0.531,0.22 z"
             id="path154" />
          <path
             inkscape:connector-curvature="0"
             d="M 2.707,12.75 H 0.75 C 0.336,12.75 0,12.414 0,12 0,11.586 0.336,11.25 0.75,11.25 h 1.957 c 0.414,0 0.75,0.336 0.75,0.75 0,0.414 -0.336,0.75 -0.75,0.75 z"
             id="path156" />
          <path
             inkscape:connector-curvature="0"
             d="m 5.429,6.179 c -0.192,0 -0.384,-0.073 -0.53,-0.22 L 3.515,4.575 c -0.293,-0.293 -0.293,-0.768 0,-1.061 0.293,-0.293 0.768,-0.293 1.061,0 L 5.96,4.898 c 0.293,0.293 0.293,0.768 0,1.061 -0.148,0.146 -0.339,0.22 -0.531,0.22 z"
             id="path158" />
          <path
             inkscape:connector-curvature="0"
             d="m 15,21 v 1.25 C 15,23.21 14.21,24 13.25,24 h -2.5 C 9.91,24 9,23.36 9,21.96 V 21 Z"
             id="path160" />
          <path
             inkscape:connector-curvature="0"
             d="M 16.41,6.56 C 14.77,5.23 12.61,4.71 10.5,5.16 7.85,5.71 5.7,7.87 5.15,10.52 c -0.56,2.72 0.46,5.42 2.64,7.07 0.59,0.44 1,1.12 1.14,1.91 v 0.01 C 8.95,19.5 8.98,19.5 9,19.5 h 6 c 0.02,0 0.03,0 0.05,0.01 V 19.5 c 0.14,-0.76 0.59,-1.46 1.28,-2 C 18.02,16.16 19,14.16 19,12 19,9.88 18.06,7.9 16.41,6.56 Z M 15.75,12.5 C 15.34,12.5 15,12.16 15,11.75 15,10.23 13.77,9 12.25,9 11.84,9 11.5,8.66 11.5,8.25 c 0,-0.41 0.34,-0.75 0.75,-0.75 2.34,0 4.25,1.91 4.25,4.25 0,0.41 -0.34,0.75 -0.75,0.75 z"
             id="path162" />
          <path
             inkscape:connector-curvature="0"
             d="M 8.93,19.5 H 9 c -0.02,0 -0.05,0 -0.07,0.01 z"
             id="path164" />
          <path
             inkscape:connector-curvature="0"
             d="m 15.05,19.5 v 0.01 C 15.03,19.5 15.02,19.5 15,19.5 Z"
             id="path166" />
        </g>
      </g>
    </g>
  </g>
</svg>
